<mxfile host="Electron" modified="2023-12-06T15:35:31.734Z" agent="Mozilla/5.0 (Windows NT 10.0; Win64; x64) AppleWebKit/537.36 (KHTML, like Gecko) draw.io/22.1.2 Chrome/114.0.5735.289 Electron/25.9.4 Safari/537.36" etag="rph7ncLZGThbedM7lPLJ" version="22.1.2" type="device">
  <diagram name="Page-1" id="zs3X1F8NAWPLN6pm_sID">
    <mxGraphModel dx="1036" dy="606" grid="1" gridSize="10" guides="1" tooltips="1" connect="1" arrows="1" fold="1" page="1" pageScale="1" pageWidth="850" pageHeight="1100" math="0" shadow="0">
      <root>
        <mxCell id="0" />
        <mxCell id="1" parent="0" />
        <mxCell id="mIjtfxxV2LHmMMAKAbi8-4" style="edgeStyle=orthogonalEdgeStyle;rounded=0;orthogonalLoop=1;jettySize=auto;html=1;exitX=0.5;exitY=1;exitDx=0;exitDy=0;entryX=0.5;entryY=0;entryDx=0;entryDy=0;" edge="1" parent="1" source="mIjtfxxV2LHmMMAKAbi8-1" target="mIjtfxxV2LHmMMAKAbi8-3">
          <mxGeometry relative="1" as="geometry" />
        </mxCell>
        <mxCell id="mIjtfxxV2LHmMMAKAbi8-1" value="START" style="ellipse;whiteSpace=wrap;html=1;" vertex="1" parent="1">
          <mxGeometry x="340" y="110" width="120" height="80" as="geometry" />
        </mxCell>
        <mxCell id="mIjtfxxV2LHmMMAKAbi8-7" style="edgeStyle=orthogonalEdgeStyle;rounded=0;orthogonalLoop=1;jettySize=auto;html=1;exitX=0.5;exitY=1;exitDx=0;exitDy=0;entryX=0.5;entryY=0;entryDx=0;entryDy=0;" edge="1" parent="1" source="mIjtfxxV2LHmMMAKAbi8-2" target="mIjtfxxV2LHmMMAKAbi8-6">
          <mxGeometry relative="1" as="geometry" />
        </mxCell>
        <mxCell id="mIjtfxxV2LHmMMAKAbi8-2" value="numStudents" style="shape=parallelogram;perimeter=parallelogramPerimeter;whiteSpace=wrap;html=1;fixedSize=1;" vertex="1" parent="1">
          <mxGeometry x="340" y="320" width="120" height="60" as="geometry" />
        </mxCell>
        <mxCell id="mIjtfxxV2LHmMMAKAbi8-5" style="edgeStyle=orthogonalEdgeStyle;rounded=0;orthogonalLoop=1;jettySize=auto;html=1;exitX=0.5;exitY=1;exitDx=0;exitDy=0;entryX=0.5;entryY=0;entryDx=0;entryDy=0;" edge="1" parent="1" source="mIjtfxxV2LHmMMAKAbi8-3" target="mIjtfxxV2LHmMMAKAbi8-2">
          <mxGeometry relative="1" as="geometry" />
        </mxCell>
        <mxCell id="mIjtfxxV2LHmMMAKAbi8-3" value="Student, name, age, phone, email" style="rounded=0;whiteSpace=wrap;html=1;" vertex="1" parent="1">
          <mxGeometry x="340" y="220" width="120" height="60" as="geometry" />
        </mxCell>
        <mxCell id="mIjtfxxV2LHmMMAKAbi8-11" style="edgeStyle=orthogonalEdgeStyle;rounded=0;orthogonalLoop=1;jettySize=auto;html=1;exitX=0.5;exitY=1;exitDx=0;exitDy=0;entryX=0.5;entryY=0;entryDx=0;entryDy=0;" edge="1" parent="1" source="mIjtfxxV2LHmMMAKAbi8-6" target="mIjtfxxV2LHmMMAKAbi8-9">
          <mxGeometry relative="1" as="geometry" />
        </mxCell>
        <mxCell id="mIjtfxxV2LHmMMAKAbi8-6" value="students, numStudent" style="rounded=0;whiteSpace=wrap;html=1;" vertex="1" parent="1">
          <mxGeometry x="340" y="420" width="120" height="60" as="geometry" />
        </mxCell>
        <mxCell id="mIjtfxxV2LHmMMAKAbi8-12" style="edgeStyle=orthogonalEdgeStyle;rounded=0;orthogonalLoop=1;jettySize=auto;html=1;exitX=0.5;exitY=1;exitDx=0;exitDy=0;entryX=0.5;entryY=0;entryDx=0;entryDy=0;" edge="1" parent="1" source="mIjtfxxV2LHmMMAKAbi8-9" target="mIjtfxxV2LHmMMAKAbi8-10">
          <mxGeometry relative="1" as="geometry" />
        </mxCell>
        <mxCell id="mIjtfxxV2LHmMMAKAbi8-9" value="for(i=1; i&amp;lt;numStudent" style="rhombus;whiteSpace=wrap;html=1;" vertex="1" parent="1">
          <mxGeometry x="345" y="510" width="110" height="80" as="geometry" />
        </mxCell>
        <mxCell id="mIjtfxxV2LHmMMAKAbi8-14" style="edgeStyle=orthogonalEdgeStyle;rounded=0;orthogonalLoop=1;jettySize=auto;html=1;exitX=0.5;exitY=1;exitDx=0;exitDy=0;" edge="1" parent="1" source="mIjtfxxV2LHmMMAKAbi8-10" target="mIjtfxxV2LHmMMAKAbi8-13">
          <mxGeometry relative="1" as="geometry" />
        </mxCell>
        <mxCell id="mIjtfxxV2LHmMMAKAbi8-10" value="&lt;br&gt;&lt;span style=&quot;color: rgb(240, 240, 240); font-family: Helvetica; font-size: 12px; font-style: normal; font-variant-ligatures: normal; font-variant-caps: normal; font-weight: 400; letter-spacing: normal; orphans: 2; text-align: center; text-indent: 0px; text-transform: none; widows: 2; word-spacing: 0px; -webkit-text-stroke-width: 0px; background-color: rgb(27, 29, 30); text-decoration-thickness: initial; text-decoration-style: initial; text-decoration-color: initial; float: none; display: inline !important;&quot;&gt;Student, name, age, phone, email&amp;nbsp;&lt;/span&gt;&lt;br&gt;" style="shape=parallelogram;perimeter=parallelogramPerimeter;whiteSpace=wrap;html=1;fixedSize=1;" vertex="1" parent="1">
          <mxGeometry x="340" y="620" width="120" height="60" as="geometry" />
        </mxCell>
        <mxCell id="mIjtfxxV2LHmMMAKAbi8-16" style="edgeStyle=orthogonalEdgeStyle;rounded=0;orthogonalLoop=1;jettySize=auto;html=1;exitX=0.5;exitY=1;exitDx=0;exitDy=0;" edge="1" parent="1" source="mIjtfxxV2LHmMMAKAbi8-13" target="mIjtfxxV2LHmMMAKAbi8-15">
          <mxGeometry relative="1" as="geometry" />
        </mxCell>
        <mxCell id="mIjtfxxV2LHmMMAKAbi8-13" value="fprintf file" style="rounded=0;whiteSpace=wrap;html=1;" vertex="1" parent="1">
          <mxGeometry x="340" y="740" width="120" height="60" as="geometry" />
        </mxCell>
        <mxCell id="mIjtfxxV2LHmMMAKAbi8-18" style="edgeStyle=orthogonalEdgeStyle;rounded=0;orthogonalLoop=1;jettySize=auto;html=1;exitX=0.5;exitY=1;exitDx=0;exitDy=0;entryX=0.5;entryY=0;entryDx=0;entryDy=0;" edge="1" parent="1" source="mIjtfxxV2LHmMMAKAbi8-15" target="mIjtfxxV2LHmMMAKAbi8-17">
          <mxGeometry relative="1" as="geometry" />
        </mxCell>
        <mxCell id="mIjtfxxV2LHmMMAKAbi8-15" value="fclose file" style="rounded=0;whiteSpace=wrap;html=1;" vertex="1" parent="1">
          <mxGeometry x="340" y="840" width="120" height="60" as="geometry" />
        </mxCell>
        <mxCell id="mIjtfxxV2LHmMMAKAbi8-22" style="edgeStyle=orthogonalEdgeStyle;rounded=0;orthogonalLoop=1;jettySize=auto;html=1;exitX=0.5;exitY=1;exitDx=0;exitDy=0;entryX=0.5;entryY=0;entryDx=0;entryDy=0;" edge="1" parent="1" source="mIjtfxxV2LHmMMAKAbi8-17" target="mIjtfxxV2LHmMMAKAbi8-19">
          <mxGeometry relative="1" as="geometry" />
        </mxCell>
        <mxCell id="mIjtfxxV2LHmMMAKAbi8-17" value="fopen file &quot;r&quot;" style="rounded=0;whiteSpace=wrap;html=1;" vertex="1" parent="1">
          <mxGeometry x="340" y="950" width="120" height="60" as="geometry" />
        </mxCell>
        <mxCell id="mIjtfxxV2LHmMMAKAbi8-23" style="edgeStyle=orthogonalEdgeStyle;rounded=0;orthogonalLoop=1;jettySize=auto;html=1;exitX=0.5;exitY=1;exitDx=0;exitDy=0;entryX=0.5;entryY=0;entryDx=0;entryDy=0;" edge="1" parent="1" source="mIjtfxxV2LHmMMAKAbi8-19" target="mIjtfxxV2LHmMMAKAbi8-20">
          <mxGeometry relative="1" as="geometry" />
        </mxCell>
        <mxCell id="mIjtfxxV2LHmMMAKAbi8-19" value="fclose file" style="rounded=0;whiteSpace=wrap;html=1;" vertex="1" parent="1">
          <mxGeometry x="340" y="1040" width="120" height="60" as="geometry" />
        </mxCell>
        <mxCell id="mIjtfxxV2LHmMMAKAbi8-24" style="edgeStyle=orthogonalEdgeStyle;rounded=0;orthogonalLoop=1;jettySize=auto;html=1;exitX=0.5;exitY=1;exitDx=0;exitDy=0;" edge="1" parent="1" source="mIjtfxxV2LHmMMAKAbi8-20" target="mIjtfxxV2LHmMMAKAbi8-21">
          <mxGeometry relative="1" as="geometry" />
        </mxCell>
        <mxCell id="mIjtfxxV2LHmMMAKAbi8-20" value="in ra man hinh" style="shape=parallelogram;perimeter=parallelogramPerimeter;whiteSpace=wrap;html=1;fixedSize=1;" vertex="1" parent="1">
          <mxGeometry x="335" y="1130" width="120" height="60" as="geometry" />
        </mxCell>
        <mxCell id="mIjtfxxV2LHmMMAKAbi8-21" value="END" style="ellipse;whiteSpace=wrap;html=1;" vertex="1" parent="1">
          <mxGeometry x="335" y="1230" width="120" height="80" as="geometry" />
        </mxCell>
      </root>
    </mxGraphModel>
  </diagram>
</mxfile>
